# xmcd CD database file
#
# Track frame offsets:
#	150
#	48302
#	74134
#	90937
#	139430
#	158441
#	176336
#	222490
#	271196
#
# Disc length: 4286 seconds
#
# Revision: 0
# Processed by: cddbd v1.5.1PL0 Copyright (c) Steve Scherf et al.
# Submitted via: CDex 1.51
#
DISCID=7d10bc09
DTITLE=Blue Note by Bobby Flores - Copas Llenas de Jazz
DYEAR=2005
DGENRE=Jazz
TTITLE0=Blue Train-John Coltrane
TTITLE1=Move-Miles Davis
TTITLE2=Let's Get Lost-Chet Baker
TTITLE3=Moanin´-Art Blakey
TTITLE4=Caravan-Duke Ellington
TTITLE5=Midnight Blue-Kenny Burrell
TTITLE6=The Sidewinder-Lee Morgan
TTITLE7=Cantaloupe Island-Herbie Kancock
TTITLE8=Sookie Sookie-Grant Green
EXTD=YEAR: 2005
EXTT0=
EXTT1=
EXTT2=
EXTT3=
EXTT4=
EXTT5=
EXTT6=
EXTT7=
EXTT8=
PLAYORDER=
